<svg version="1.1" id="Layer_1" xmlns="http://www.w3.org/2000/svg" xmlns:xlink="http://www.w3.org/1999/xlink" x="0px" y="0px" width="25px" height="25px" viewBox="0 13.881 100 72.236" enable-background="new 0 13.881 100 72.236" xml:space="preserve">
<g>
	<path d="M11.068,19.107c0.014-0.003,20.887-5.226,38.928-5.226c18.025,0,38.916,5.222,38.934,5.228
		c7.685,1.774,12.476,9.441,10.7,17.125c-1.299,5.626-5.758,9.697-11.068,10.78L71.646,35.463c-0.317-1.823-0.283-3.737,0.158-5.653
		c0.259-1.12,0.646-2.177,1.138-3.164c-6.372-0.682-14.532-1.311-22.945-1.311c-8.411,0-16.568,0.629-22.939,1.311
		c0.491,0.986,0.879,2.042,1.137,3.164c0.441,1.916,0.477,3.83,0.16,5.653l-25.65,5.921c-1.084-1.499-1.894-3.234-2.335-5.15
		C-1.406,28.55,3.385,20.883,11.068,19.107z M67.161,27.664c3.551,14.234,11.938,26.556,23.32,35.107v23.347H9.51V62.771
		c11.385-8.552,19.771-20.873,23.321-35.107c1.835-0.153,3.758-0.293,5.741-0.409v5.947H61.42v-5.947
		C63.403,27.371,65.325,27.511,67.161,27.664z M67.635,56.72c0-9.741-7.896-17.639-17.638-17.639s-17.64,7.898-17.64,17.639
		c0,9.742,7.897,17.64,17.639,17.64S67.635,66.462,67.635,56.72z M61.42,56.72c0,6.31-5.114,11.424-11.423,11.424
		c-6.31,0-11.423-5.114-11.423-11.424c0-6.309,5.114-11.423,11.423-11.423C56.306,45.296,61.42,50.411,61.42,56.72z"></path>
</g>
</svg>