<svg version="1.1" id="Layer_1" xmlns="http://www.w3.org/2000/svg" xmlns:xlink="http://www.w3.org/1999/xlink" x="0px" y="0px" width="100px" height="100px" viewBox="0 0 100 100" enable-background="new 0 0 100 54.844" xml:space="preserve">
<path fill="#010101" d="M0,0v29.62h40.046V0H0z M33.136,3.964l0.46,1.421h1.496l-1.21,0.878l0.462,1.423l-1.208-0.879l-1.21,0.879
	l0.462-1.423l-1.209-0.878h1.495L33.136,3.964z M34.344,13.468l-1.208-0.879l-1.21,0.879l0.462-1.421l-1.209-0.879h1.495
	l0.462-1.422l0.46,1.422h1.496l-1.21,0.879L34.344,13.468z M34.344,19.215l-1.208-0.879l-1.21,0.879l0.462-1.422l-1.209-0.877h1.495
	l0.462-1.423l0.46,1.423h1.496l-1.21,0.877L34.344,19.215z M31.1,22.001l-1.209-0.878l-1.209,0.878l0.461-1.421l-1.208-0.879h1.494
	l0.462-1.422l0.462,1.422h1.495l-1.209,0.879L31.1,22.001z M27.715,19.215l-1.209-0.879l-1.209,0.879l0.462-1.422l-1.21-0.877h1.495
	l0.462-1.423l0.462,1.423h1.495l-1.209,0.877L27.715,19.215z M24.401,22.001l-1.209-0.878l-1.21,0.878l0.462-1.421l-1.209-0.879
	h1.495l0.462-1.422l0.461,1.422h1.495l-1.209,0.879L24.401,22.001z M20.98,19.215l-1.209-0.879l-1.209,0.879l0.462-1.422
	l-1.21-0.877h1.495l0.462-1.423l0.462,1.423h1.496l-1.21,0.877L20.98,19.215z M17.702,22.001l-1.21-0.878l-1.209,0.878l0.462-1.421
	l-1.21-0.879h1.496l0.461-1.422l0.462,1.422h1.495l-1.209,0.879L17.702,22.001z M14.388,19.215l-1.21-0.879l-1.21,0.879l0.462-1.422
	l-1.209-0.877h1.496l0.461-1.423l0.462,1.423h1.495l-1.209,0.877L14.388,19.215z M11.001,22.001l-1.209-0.878l-1.209,0.878
	l0.461-1.421l-1.209-0.879H9.33l0.462-1.422l0.462,1.422h1.495L10.54,20.58L11.001,22.001z M7.688,19.215l-1.209-0.879l-1.21,0.879
	l0.462-1.422l-1.21-0.877h1.496l0.462-1.423l0.462,1.423h1.495l-1.21,0.877L7.688,19.215z M4.52,11.167h1.496l0.462-1.422
	l0.462,1.422h1.495l-1.21,0.879l0.462,1.421l-1.209-0.879l-1.21,0.879l0.462-1.421L4.52,11.167z M31.1,10.546l-1.209-0.878
	l-1.209,0.878l0.461-1.422l-1.208-0.879h1.494l0.462-1.42l0.462,1.42h1.495l-1.209,0.879L31.1,10.546z M31.1,16.234l-1.209-0.879
	l-1.209,0.879l0.461-1.423l-1.208-0.878h1.494l0.462-1.421l0.462,1.421h1.495l-1.209,0.878L31.1,16.234z M28.463,11.167
	l-1.209,0.879l0.461,1.421l-1.209-0.879l-1.209,0.879l0.462-1.421l-1.21-0.879h1.495l0.462-1.422l0.462,1.422H28.463z
	 M24.401,16.234l-1.209-0.879l-1.21,0.879l0.462-1.423l-1.209-0.878h1.495l0.462-1.421l0.461,1.421h1.495l-1.209,0.878
	L24.401,16.234z M23.938,9.124l0.462,1.422l-1.209-0.878l-1.21,0.878l0.462-1.422l-1.209-0.879h1.495l0.462-1.42l0.461,1.42h1.495
	L23.938,9.124z M21.729,11.167l-1.21,0.879l0.461,1.421l-1.209-0.879l-1.209,0.879l0.462-1.421l-1.21-0.879h1.495l0.462-1.422
	l0.462,1.422H21.729z M17.702,16.234l-1.21-0.879l-1.209,0.879l0.462-1.423l-1.21-0.878h1.496l0.461-1.421l0.462,1.421h1.495
	l-1.209,0.878L17.702,16.234z M17.239,9.124l0.462,1.422l-1.21-0.878l-1.209,0.878l0.462-1.422l-1.21-0.879h1.496l0.461-1.42
	l0.462,1.42h1.495L17.239,9.124z M15.134,11.167l-1.209,0.879l0.462,1.421l-1.21-0.879l-1.21,0.879l0.462-1.421l-1.209-0.879h1.496
	l0.461-1.422l0.462,1.422H15.134z M11.001,16.234l-1.209-0.879l-1.209,0.879l0.461-1.423l-1.209-0.878H9.33l0.462-1.421l0.462,1.421
	h1.495l-1.209,0.878L11.001,16.234z M10.54,9.296l0.461,1.421L9.792,9.839l-1.209,0.879l0.461-1.421L7.835,8.417H9.33l0.462-1.422
	l0.462,1.422h1.495L10.54,9.296z M29.429,2.458l0.462-1.422l0.462,1.422h1.495l-1.209,0.878L31.1,4.758L29.891,3.88l-1.209,0.878
	l0.461-1.421l-1.208-0.878H29.429z M26.506,3.964l0.462,1.421h1.495l-1.209,0.878l0.461,1.423l-1.209-0.879l-1.209,0.879
	l0.462-1.423l-1.21-0.878h1.495L26.506,3.964z M22.729,2.458l0.462-1.422l0.461,1.422h1.495l-1.209,0.878l0.462,1.421L23.192,3.88
	l-1.21,0.878l0.462-1.421l-1.209-0.878H22.729z M19.771,3.964l0.462,1.421h1.496l-1.21,0.878l0.461,1.423l-1.209-0.879l-1.209,0.879
	l0.462-1.423l-1.21-0.878h1.495L19.771,3.964z M16.03,2.458l0.461-1.422l0.462,1.422h1.495l-1.209,0.878l0.462,1.421l-1.21-0.878
	l-1.209,0.878l0.462-1.421l-1.21-0.878H16.03z M13.177,3.964l0.462,1.421h1.495l-1.209,0.878l0.462,1.423l-1.21-0.879l-1.21,0.879
	l0.462-1.423L11.22,5.385h1.496L13.177,3.964z M9.33,2.458l0.462-1.422l0.462,1.422h1.495L10.54,3.337l0.461,1.421L9.792,3.88
	L8.583,4.758l0.461-1.421L7.835,2.458H9.33z M6.478,3.964L6.94,5.385h1.495l-1.21,0.878l0.462,1.423L6.478,6.807l-1.21,0.879
	L5.73,6.263L4.52,5.385h1.496L6.478,3.964z M2.736,2.458l0.461-1.422L3.66,2.458h1.496l-1.21,0.878l0.462,1.421L3.198,3.88
	L1.989,4.758l0.462-1.421L1.242,2.458H2.736z M2.736,8.245l0.461-1.42l0.462,1.42h1.496l-1.21,0.879l0.462,1.422l-1.21-0.878
	l-1.209,0.878l0.462-1.422L1.242,8.245H2.736z M2.736,13.934l0.461-1.421l0.462,1.421h1.496l-1.21,0.878l0.462,1.423l-1.21-0.879
	l-1.209,0.879l0.462-1.423l-1.209-0.878H2.736z M2.736,19.701l0.461-1.422l0.462,1.422h1.496l-1.21,0.879l0.462,1.421l-1.21-0.878
	l-1.209,0.878l0.462-1.421l-1.209-0.879H2.736z M4.408,27.785l-1.21-0.879l-1.209,0.879l0.462-1.423l-1.209-0.878h1.495l0.461-1.421
	l0.462,1.421h1.496l-1.21,0.878L4.408,27.785z M6.478,23.974l-1.21,0.879L5.73,23.43l-1.21-0.878h1.496l0.462-1.421l0.462,1.421
	h1.495l-1.21,0.878l0.462,1.423L6.478,23.974z M11.001,27.785l-1.209-0.879l-1.209,0.879l0.461-1.423l-1.209-0.878H9.33l0.462-1.421
	l0.462,1.421h1.495l-1.209,0.878L11.001,27.785z M13.177,23.974l-1.21,0.879l0.462-1.423l-1.209-0.878h1.496l0.461-1.421
	l0.462,1.421h1.495l-1.209,0.878l0.462,1.423L13.177,23.974z M17.702,27.785l-1.21-0.879l-1.209,0.879l0.462-1.423l-1.21-0.878
	h1.496l0.461-1.421l0.462,1.421h1.495l-1.209,0.878L17.702,27.785z M19.771,23.868l-1.209,0.879l0.462-1.421l-1.21-0.879h1.495
	l0.462-1.422l0.462,1.422h1.496l-1.21,0.879l0.461,1.421L19.771,23.868z M24.401,27.89l-1.209-0.878l-1.21,0.878l0.462-1.422
	l-1.209-0.879h1.495l0.462-1.42l0.461,1.42h1.495l-1.209,0.879L24.401,27.89z M26.506,23.974l-1.209,0.879l0.462-1.423l-1.21-0.878
	h1.495l0.462-1.421l0.462,1.421h1.495l-1.209,0.878l0.461,1.423L26.506,23.974z M31.1,27.785l-1.209-0.879l-1.209,0.879l0.461-1.423
	l-1.208-0.878h1.494l0.462-1.421l0.462,1.421h1.495l-1.209,0.878L31.1,27.785z M33.136,23.974l-1.21,0.879l0.462-1.423l-1.209-0.878
	h1.495l0.462-1.421l0.46,1.421h1.496l-1.21,0.878l0.462,1.423L33.136,23.974z M37.66,27.785l-1.21-0.879l-1.21,0.879l0.462-1.423
	l-1.209-0.878h1.496l0.461-1.421l0.462,1.421h1.495l-1.209,0.878L37.66,27.785z M37.198,20.58l0.462,1.421l-1.21-0.878l-1.21,0.878
	l0.462-1.421l-1.209-0.879h1.496l0.461-1.422l0.462,1.422h1.495L37.198,20.58z M37.198,14.812l0.462,1.423l-1.21-0.879l-1.21,0.879
	l0.462-1.423l-1.209-0.878h1.496l0.461-1.421l0.462,1.421h1.495L37.198,14.812z M37.198,9.124l0.462,1.422l-1.21-0.878l-1.21,0.878
	l0.462-1.422l-1.209-0.879h1.496l0.461-1.42l0.462,1.42h1.495L37.198,9.124z M37.198,3.337l0.462,1.421L36.45,3.88l-1.21,0.878
	l0.462-1.421l-1.209-0.878h1.496l0.461-1.422l0.462,1.422h1.495L37.198,3.337z"></path>
<rect y="50.613" fill="#010101" width="99.965" height="4.231"></rect>
<rect y="42.216" fill="#010101" width="99.965" height="4.231"></rect>
<rect y="33.819" fill="#010101" width="99.965" height="4.231"></rect>
<rect x="40.071" y="25.388" fill="#010101" width="59.929" height="4.232"></rect>
<rect x="40.064" y="16.795" fill="#010101" width="59.928" height="4.231"></rect>
<rect x="40.064" y="8.397" fill="#010101" width="59.928" height="4.231"></rect>
<rect x="40.064" fill="#010101" width="59.928" height="4.231"></rect>
</svg>