<?xml version="1.0" encoding="utf-8"?>
<!-- Generator: Adobe Illustrator 15.0.0, SVG Export Plug-In . SVG Version: 6.00 Build 0)  -->
<!DOCTYPE svg PUBLIC "-//W3C//DTD SVG 1.1//EN" "http://www.w3.org/Graphics/SVG/1.1/DTD/svg11.dtd">
<svg version="1.1" id="Layer_1" xmlns="http://www.w3.org/2000/svg" xmlns:xlink="http://www.w3.org/1999/xlink" x="0px" y="0px"
	 width="52.941px" height="45.774px" viewBox="0 0 52.941 45.774" enable-background="new 0 0 52.941 45.774" xml:space="preserve">
<g>
	<path fill="#515257" d="M12.226,25.791v-3.792H8.26c-1.535,0-2.785-1.329-2.785-2.963v-8.553c0-1.633,1.249-2.963,2.785-2.963
		h17.733c1.535,0,2.783,1.33,2.783,2.963v8.553c0,1.634-1.248,2.963-2.783,2.963v2.079c2.682,0,4.862-2.262,4.862-5.042v-8.553
		c0-2.779-2.181-5.042-4.862-5.042H8.26c-2.683,0-4.863,2.263-4.863,5.042v8.553c0,2.78,2.181,5.042,4.863,5.042h1.887v3.685
		c0,0.565,0.365,1.079,0.907,1.278c0.155,0.057,0.313,0.085,0.469,0.085c0.38,0,0.745-0.163,1.002-0.467l3.87-4.581h3.863v-2.079
		h-4.827L12.226,25.791z"/>
	<path fill="#86867C" d="M44.682,16.648H32.676v2.08h12.006c1.534,0,2.785,1.329,2.785,2.963v8.551c0,1.634-1.249,2.964-2.785,2.964
		h-3.965V37l-3.206-3.794H26.948c-1.535,0-2.785-1.33-2.785-2.964v-8.552c0-1.634,1.25-2.963,2.785-2.963v-2.08
		c-2.682,0-4.864,2.263-4.864,5.043v8.551c0,2.781,2.182,5.043,4.864,5.043h9.598l3.871,4.583c0.257,0.302,0.621,0.465,1,0.465
		c0.155,0,0.314-0.027,0.469-0.084c0.544-0.2,0.91-0.714,0.91-1.28v-3.684h1.886c2.682,0,4.863-2.262,4.863-5.043v-8.551
		C49.545,18.911,47.363,16.648,44.682,16.648z"/>
	<path fill="#515257" d="M15.617,8.88l-3.678,9.689h2.157l0.761-2.157h3.622l0.733,2.157h2.212L17.802,8.88H15.617z M15.414,14.825
		l1.262-3.556h0.027l1.222,3.556H15.414z"/>
	<path fill="#86867C" d="M31.15,28.156c0,1.062,0.68,1.75,1.787,1.75c1.329-0.027,2.646-0.872,3.074-1.254
		c0.427-0.381,1.581-1.707,2.091-2.758c0.644,0.305,0.949,0.814,0.949,1.379c0,1.221-1.176,1.929-3.053,2.144l0.911,1.261
		c2.938-0.385,3.938-1.619,3.938-3.426c0-1.527-0.962-2.454-2.193-2.86c0.023-0.112,0.064-0.229,0.087-0.343l-1.669-0.297
		c-0.012,0.169-0.045,0.199-0.078,0.369c-0.6-0.034-1.266,0.057-1.481,0.102c0-0.305,0.012-1.119,0.023-1.413
		c1.39-0.057,2.758-0.169,4.022-0.361l-0.146-1.648c-1.3,0.26-2.554,0.396-3.785,0.463c0.032-0.327,0.078-1.256,0.078-1.256
		l-1.763-0.135c-0.023,0.452-0.033,0.984-0.056,1.447c-0.781,0.011-1.707,0.011-2.193,0l0.079,1.593h0.191
		c0.464,0,1.222-0.023,1.899-0.045c0,0.439,0.011,1.389,0.023,1.818C32.293,25.351,31.15,26.583,31.15,28.156z M36.463,25.6
		c-0.237,0.475-0.52,0.905-0.836,1.266c-0.046-0.374-0.068-0.757-0.091-1.163C35.66,25.68,36.157,25.6,36.463,25.6z M33.976,26.256
		c0.058,0.633,0.125,1.243,0.227,1.796c-0.293,0.147-0.575,0.238-0.837,0.25C32.8,28.325,32.8,27.964,32.8,27.804
		C32.801,27.205,33.264,26.652,33.976,26.256z"/>
</g>
</svg>
