<?xml version="1.0" encoding="utf-8"?>
<!-- Generator: Adobe Illustrator 15.0.0, SVG Export Plug-In . SVG Version: 6.00 Build 0)  -->
<!DOCTYPE svg PUBLIC "-//W3C//DTD SVG 1.1//EN" "http://www.w3.org/Graphics/SVG/1.1/DTD/svg11.dtd">
<svg version="1.1" id="Layer_1" xmlns="http://www.w3.org/2000/svg" xmlns:xlink="http://www.w3.org/1999/xlink" x="0px" y="0px"
	 width="35px" height="35px" viewBox="0 0 35 35" enable-background="new 0 0 35 35" xml:space="preserve">
<g>
	<g id="Your_Icon_1_">
		<path fill="#86867C" d="M12.941,27.559l-7.166-7.21l3.48-3.503l3.786,3.809L30.254,3.383l3.379,3.4L12.941,27.559z"/>
	</g>
	<path fill="#4D4D4F" d="M24.312,8.399c-2.538-2.537-5.913-3.935-9.503-3.935h-0.017c-3.587,0-6.958,1.398-9.495,3.936
		c-2.536,2.537-3.932,5.911-3.929,9.495c-0.003,3.591,1.394,6.968,3.932,9.509c2.537,2.54,5.911,3.939,9.499,3.939H14.8
		c3.592,0,6.97-1.399,9.509-3.939c2.538-2.539,3.938-5.914,3.938-9.508C28.247,14.308,26.85,10.936,24.312,8.399z M14.808,7.461
		c5.757,0,10.442,4.681,10.442,10.435c0,2.278-0.732,4.385-1.975,6.104L8.708,9.419c1.761-1.271,3.869-1.959,6.085-1.959
		L14.808,7.461L14.808,7.461z M7.419,25.286c-1.972-1.974-3.057-4.597-3.054-7.391c-0.003-2.286,0.729-4.462,2.081-6.259
		L21.059,26.26c-1.746,1.31-3.914,2.087-6.258,2.087C12.012,28.347,9.391,27.26,7.419,25.286z"/>
</g>
</svg>
