<?xml version="1.0" encoding="utf-8"?>
<!-- Generator: Adobe Illustrator 15.0.0, SVG Export Plug-In . SVG Version: 6.00 Build 0)  -->
<!DOCTYPE svg PUBLIC "-//W3C//DTD SVG 1.1//EN" "http://www.w3.org/Graphics/SVG/1.1/DTD/svg11.dtd">
<svg version="1.1" id="Layer_1" xmlns="http://www.w3.org/2000/svg" xmlns:xlink="http://www.w3.org/1999/xlink" x="0px" y="0px"
	 width="35px" height="35px" viewBox="0 0 35 35" enable-background="new 0 0 35 35" xml:space="preserve">
<g>
	<g id="Your_Icon_1_">
		<path fill="#86867C" d="M10.737,29.588l-7.166-7.21l3.48-3.504l3.786,3.81L28.05,5.412l3.379,3.4L10.737,29.588z"/>
	</g>
	<g id="Layer_2">
		<path fill="#4D4D4F" d="M18.979,11.092l-0.085,0.081l-3.551,3.417c-0.707,0.776-1.03-0.453-1.03-0.453L10.619,5.97h-6
			c0,0,7.832,14.886,8.16,15.845s1.099,0.258,1.099,0.258l2.734-2.632c0.689-0.663,0.887,0.127,0.887,0.127l6.438,10.021
			l-3.925-18.164C19.91,10.087,19.067,11.01,18.979,11.092"/>
		<path fill="#4D4D4F" d="M21.557,10.499"/>
	</g>
</g>
</svg>
