<?xml version="1.0" encoding="utf-8"?>
<!-- Generator: Adobe Illustrator 15.0.0, SVG Export Plug-In . SVG Version: 6.00 Build 0)  -->
<!DOCTYPE svg PUBLIC "-//W3C//DTD SVG 1.1//EN" "http://www.w3.org/Graphics/SVG/1.1/DTD/svg11.dtd">
<svg version="1.1" id="Layer_1" xmlns="http://www.w3.org/2000/svg" xmlns:xlink="http://www.w3.org/1999/xlink" x="0px" y="0px"
	 width="35px" height="35px" viewBox="0 0 35 35" enable-background="new 0 0 35 35" xml:space="preserve">
<g>
	<path fill="#4D4D4F" d="M21.721,10.902V3.937c0-0.832-0.676-1.507-1.509-1.507h-5.424c-0.833,0-1.508,0.675-1.508,1.507v6.966
		c-2.173,1.395-3.617,3.83-3.617,6.598c0,2.769,1.444,5.205,3.617,6.6v6.965c0,0.832,0.675,1.506,1.508,1.506h5.424
		c0.833,0,1.509-0.674,1.509-1.506V24.1c2.172-1.395,3.616-3.831,3.616-6.6C25.337,14.732,23.893,12.297,21.721,10.902z
		 M21.721,22.611c-1.148,0.949-2.619,1.521-4.221,1.521c-1.601,0-3.072-0.571-4.22-1.521c-1.472-1.217-2.411-3.057-2.411-5.111
		s0.939-3.894,2.411-5.111c1.147-0.949,2.619-1.52,4.22-1.52c1.602,0,3.072,0.57,4.221,1.52c1.471,1.218,2.41,3.057,2.41,5.111
		S23.191,21.395,21.721,22.611z"/>
	<path fill="#4D4D4F" d="M22.323,14.486c0-0.333-0.271-0.604-0.603-0.604c-0.132,0-0.251,0.044-0.351,0.114l-0.001-0.001
		l-3.828,2.734l-2.354-2.092l-0.001,0.002c-0.105-0.095-0.245-0.154-0.398-0.154c-0.333,0-0.604,0.27-0.604,0.603
		c0,0.179,0.08,0.339,0.204,0.449l-0.002,0.002l2.713,2.411l0.002-0.002c0.105,0.094,0.245,0.154,0.398,0.154
		c0.131,0,0.251-0.043,0.35-0.113h0.001l4.22-3.014l-0.001-0.001C22.222,14.866,22.323,14.688,22.323,14.486z"/>
</g>
</svg>
