<?xml version="1.0" encoding="utf-8"?>
<!-- Generator: Adobe Illustrator 15.0.0, SVG Export Plug-In . SVG Version: 6.00 Build 0)  -->
<!DOCTYPE svg PUBLIC "-//W3C//DTD SVG 1.1//EN" "http://www.w3.org/Graphics/SVG/1.1/DTD/svg11.dtd">
<svg version="1.1" id="Layer_1" xmlns="http://www.w3.org/2000/svg" xmlns:xlink="http://www.w3.org/1999/xlink" x="0px" y="0px"
	 width="35px" height="35px" viewBox="0 0 35 35" enable-background="new 0 0 35 35" xml:space="preserve">
<g>
	<g>
		<g>
			<g>
				<polygon fill="#86867C" points="4.317,9.358 4.317,6.364 18.01,6.364 18.01,6.364 20.722,3.834 1.788,3.834 1.788,11.717 
					1.788,11.717 				"/>
			</g>
		</g>
		<g>
			<g>
				<polygon fill="#86867C" points="19.218,21.265 10.61,21.265 9.041,22.727 9.041,22.726 9.041,22.727 7.678,21.265 4.317,21.265 
					4.317,17.662 1.788,14.95 1.788,14.95 1.788,23.795 21.749,23.795 21.749,10.88 20.343,12.191 19.218,13.24 				"/>
			</g>
		</g>
		<g>
			<g>
				<polygon fill="#86867C" points="22.41,3.429 9.239,15.71 4.365,10.483 1.37,13.274 9.088,21.546 25.253,6.477 				"/>
			</g>
		</g>
	</g>
	<g>
		<rect x="10.164" y="12.248" fill="#FFFFFF" width="23.303" height="19.629"/>
		<g>
			<g>
				<g>
					<polygon fill="#4D4D4F" points="12.694,17.772 12.694,14.778 26.387,14.778 26.387,14.778 29.099,12.248 10.164,12.248 
						10.164,20.131 10.164,20.131 					"/>
				</g>
			</g>
			<g>
				<g>
					<polygon fill="#4D4D4F" points="27.595,29.679 18.987,29.679 17.418,31.141 17.418,31.14 17.418,31.141 16.055,29.679 
						12.694,29.679 12.694,26.076 10.164,23.364 10.164,23.363 10.164,32.209 30.125,32.209 30.125,19.294 28.72,20.605 
						27.595,21.654 					"/>
				</g>
			</g>
			<g>
				<g>
					<polygon fill="#4D4D4F" points="30.787,11.843 17.616,24.123 12.742,18.896 9.747,21.688 17.464,29.96 33.63,14.891 					"/>
				</g>
			</g>
		</g>
	</g>
</g>
</svg>
